<svg width="24" height="24" viewBox="0 0 24 24" fill="none" xmlns="http://www.w3.org/2000/svg">
<path d="M19.0215 4C20.6663 4 22 5.34315 22 7V17C22 18.6569 20.6663 20 19.0215 20H10.0303C9.24965 19.9999 8.50024 19.6907 7.94338 19.1396L2.89064 14.1396C1.70312 12.964 1.70312 11.036 2.89064 9.86035L7.94338 4.86035C8.50024 4.30926 9.24965 4.00008 10.0303 4H19.0215ZM17.7246 8.25684C17.3811 7.91431 16.824 7.91428 16.4805 8.25684L13.9834 10.748L11.5195 8.28906C11.1759 7.94611 10.6191 7.94621 10.2754 8.28906C9.93175 8.63211 9.93176 9.1882 10.2754 9.53125L12.7393 11.9912L10.2578 14.4688C9.91422 14.8118 9.91425 15.3679 10.2578 15.7109C10.6014 16.0539 11.1583 16.0538 11.502 15.7109L13.9834 13.2334L16.4981 15.7432C16.8417 16.0857 17.3986 16.0858 17.7422 15.7432C18.0857 15.4001 18.0858 14.843 17.7422 14.5L15.2285 11.9912L17.7246 9.5C18.0682 9.15694 18.0682 8.59984 17.7246 8.25684Z" fill="#646464"/>
</svg>
