<svg width="24" height="24" viewBox="0 0 24 24" fill="none" xmlns="http://www.w3.org/2000/svg">
<path d="M5.7373 9.63184C6.84166 9.63209 7.7373 10.5274 7.7373 11.6318V21H7C4.79086 21 3 19.2091 3 17V9.63184H5.7373ZM21 9.63184V17C21 19.2091 19.2091 21 17 21H9.63184V11.6318C9.63184 10.5273 10.5273 9.63184 11.6318 9.63184H21ZM15.3154 11.5273C14.9483 11.5178 14.5827 11.5782 14.2402 11.7041C13.8978 11.8301 13.5848 12.0189 13.3203 12.2607C13.0558 12.5026 12.8446 12.7922 12.6992 13.1123C12.5538 13.4325 12.4773 13.7773 12.4736 14.126C12.4736 15.7105 13.4229 16.9571 14.3135 17.7705C14.8772 18.2852 15.7567 18.2872 16.3203 17.7725C17.2102 16.9595 18.1582 15.7093 18.1582 14.126C18.1546 13.7773 18.0771 13.4325 17.9316 13.1123C17.7862 12.7923 17.575 12.5025 17.3105 12.2607C17.0462 12.0191 16.7338 11.83 16.3916 11.7041C16.0491 11.5781 15.6827 11.5177 15.3154 11.5273ZM15.5537 13.208C15.7899 13.256 16.0065 13.375 16.1768 13.5488C16.347 13.7226 16.4637 13.9436 16.5107 14.1846C16.5577 14.4257 16.5335 14.6762 16.4414 14.9033C16.3492 15.1305 16.1925 15.3253 15.9922 15.4619C15.792 15.5984 15.5562 15.6709 15.3154 15.6709C14.9925 15.6708 14.6824 15.5397 14.4541 15.3066C14.2259 15.0735 14.0977 14.7573 14.0977 14.4277C14.0977 14.1818 14.1689 13.9408 14.3027 13.7363C14.4365 13.532 14.6272 13.3734 14.8496 13.2793C15.0722 13.1852 15.3174 13.16 15.5537 13.208ZM13.4209 3V5.7373C13.4206 6.84166 12.5253 7.7373 11.4209 7.7373H3V7C3 4.79086 4.79086 3 7 3H13.4209ZM17 3C19.2091 3 21 4.79086 21 7V7.7373H17.3154C16.2112 7.73711 15.3157 6.84154 15.3154 5.7373V3H17Z" fill="#646464"/>
</svg>
