<svg width="24" height="24" viewBox="0 0 24 24" fill="none" xmlns="http://www.w3.org/2000/svg">
<path d="M17.5 3C18.0739 3.02502 18.6152 3.27293 19.0098 3.69043C19.0585 3.73912 19.102 3.79294 19.1396 3.85059L20.8398 6.4502C20.9393 6.60121 20.9961 6.7764 21.0039 6.95703C21.0059 7.00436 21.0046 7.05183 21 7.09863V13.2402C21.5954 13.7255 22.0831 14.3297 22.4307 15.0146C22.7783 15.6996 22.9785 16.4507 23.0186 17.2178C23.0585 17.9847 22.9374 18.7515 22.6631 19.4688C22.3886 20.1862 21.9666 20.8382 21.4248 21.3828C20.8831 21.9273 20.2335 22.3527 19.5176 22.6309C18.8016 22.909 18.0349 23.0341 17.2676 22.998C16.5003 22.962 15.7493 22.7649 15.0625 22.4209C14.3757 22.0769 13.7686 21.5929 13.2803 21H7C5.93916 21 4.92201 20.5783 4.17188 19.8281C3.42175 19.078 3 18.0609 3 17V7C3 6.77608 3.0757 6.56048 3.21191 6.38574L4.87012 3.85059C4.90462 3.79345 4.94506 3.73956 4.99023 3.69043C5.38474 3.27296 5.92616 3.02505 6.5 3H17.5ZM16.5342 13.8018C16.3039 13.8299 16.094 13.9479 15.9502 14.1299C15.4888 14.7197 14.6504 15.4614 14.6504 15.9805C14.5445 16.9391 15.7343 17.492 16.3701 17.9902C16.531 18.112 16.729 18.1747 16.9307 18.168C17.1324 18.1612 17.3261 18.0855 17.4785 17.9531C17.631 17.8206 17.7337 17.6394 17.7686 17.4404C17.8034 17.2415 17.7682 17.0367 17.6699 16.8604C17.7684 16.8697 17.8658 16.8894 17.96 16.9199C18.2846 17.0568 18.5417 17.3173 18.6748 17.6436C18.8078 17.9697 18.8062 18.3353 18.6699 18.6602C18.5312 18.983 18.2704 19.238 17.9443 19.3691C17.6183 19.5002 17.2533 19.4972 16.9297 19.3604C16.7216 19.2944 16.4964 19.3077 16.2979 19.3984C16.0991 19.4894 15.9416 19.6517 15.8555 19.8525C15.7694 20.0534 15.7609 20.2787 15.832 20.4854C15.9032 20.692 16.0487 20.8645 16.2402 20.9697C16.9874 21.2769 17.8251 21.2784 18.5732 20.9736C19.3215 20.6687 19.9206 20.0819 20.2402 19.3398H20.2598C20.5834 18.5981 20.6017 17.7586 20.3096 17.0039C20.0175 16.2494 19.4387 15.6411 18.7002 15.3105C18.2894 15.1384 17.8453 15.0593 17.4004 15.0801C17.5013 14.9008 17.5345 14.691 17.4941 14.4893C17.4538 14.2874 17.3419 14.1071 17.1797 13.9805C16.9963 13.8382 16.7645 13.7737 16.5342 13.8018ZM4.98047 17C4.98047 17.5303 5.19053 18.039 5.56543 18.4141C5.9405 18.7891 6.45004 19 6.98047 19H12.21C12.0738 18.5115 12.0032 18.0071 12 17.5H11.9805C11.9812 16.6496 12.1787 15.8111 12.5576 15.0498C12.9365 14.2886 13.4862 13.6256 14.1641 13.1123C14.842 12.599 15.6293 12.249 16.4648 12.0908C17.3004 11.9326 18.1618 11.9702 18.9805 12.2002V8H15V9C15 9.26517 14.8945 9.5195 14.707 9.70703C14.5195 9.89457 14.2652 10 14 10H10C9.73481 9.99998 9.48049 9.89455 9.29297 9.70703C9.10545 9.5195 9 9.2652 9 9V8H4.98047V17ZM5.88086 6H18.1191L17.5303 5.0498H6.46973L5.88086 6Z" fill="#646464"/>
</svg>
