<svg width="24" height="24" viewBox="0 0 24 24" fill="none" xmlns="http://www.w3.org/2000/svg">
<path fill-rule="evenodd" clip-rule="evenodd" d="M5.01998 11.1H4.81997C4.66713 11.0769 4.52073 11.0225 4.38998 10.94C4.25858 10.8584 4.14333 10.7534 4.04998 10.63C3.96283 10.5057 3.8985 10.3669 3.85998 10.22C3.83006 10.0682 3.83006 9.91191 3.85998 9.76004C4.18792 7.85987 5.1846 6.13961 6.66998 4.91003C8.18112 3.67449 10.073 2.99951 12.025 2.99951C13.9769 2.99951 15.8688 3.67449 17.38 4.91003C17.8805 5.31881 18.3274 5.78919 18.71 6.31003C18.8024 6.06389 18.975 5.85606 19.2 5.72003C19.4672 5.55954 19.7864 5.50935 20.09 5.58005C20.2402 5.61201 20.3825 5.67348 20.5087 5.76086C20.635 5.84825 20.7426 5.95981 20.8254 6.08911C20.9082 6.21841 20.9644 6.36285 20.991 6.51407C21.0175 6.66529 21.0138 6.82027 20.98 6.97003L20.19 10.23C20.1371 10.4045 20.0464 10.5652 19.9244 10.7006C19.8023 10.8361 19.6519 10.9429 19.4839 11.0136C19.3158 11.0842 19.1342 11.117 18.9521 11.1095C18.7699 11.1019 18.5916 11.0543 18.43 10.97L15.27 9.69003C15.1242 9.62972 14.9918 9.54128 14.8803 9.42975C14.7687 9.31822 14.6803 9.18579 14.62 9.04004C14.5571 8.89834 14.5247 8.74504 14.5247 8.59003C14.5247 8.43502 14.5571 8.28174 14.62 8.14005C14.6792 7.99371 14.7677 7.86098 14.88 7.75003C15.1148 7.53431 15.4212 7.41319 15.74 7.41003C15.8979 7.41716 16.0534 7.45098 16.2 7.51004L16.93 7.81003C16.3783 7.02918 15.648 6.39149 14.8 5.95004C13.9477 5.50801 13.0001 5.2814 12.04 5.29004C10.644 5.28401 9.28956 5.76493 8.20999 6.65002C7.15108 7.53137 6.4418 8.76197 6.20999 10.12C6.16691 10.3973 6.0248 10.6495 5.80999 10.83C5.58791 11.0125 5.30728 11.1084 5.01998 11.1ZM4.17999 18.4301C4.09025 18.4397 3.99974 18.4397 3.91 18.4301C3.75852 18.396 3.61559 18.3313 3.48998 18.2401C3.36165 18.1534 3.25268 18.041 3.16998 17.91C3.0919 17.7808 3.0377 17.6385 3.00997 17.4901C2.98007 17.3415 2.98007 17.1885 3.00997 17.04L3.79998 13.7701C3.83525 13.6205 3.90037 13.4797 3.99145 13.3559C4.08253 13.2322 4.19768 13.1282 4.32998 13.05C4.46046 12.9619 4.60877 12.9037 4.76434 12.8795C4.91991 12.8553 5.0789 12.8657 5.22997 12.91C5.78997 13.18 7.60998 13.91 8.73998 14.35C8.88776 14.4017 9.02133 14.4873 9.12997 14.6C9.24851 14.7057 9.33803 14.84 9.38998 14.9901C9.44939 15.1326 9.47997 15.2856 9.47997 15.44C9.48214 15.5958 9.44789 15.7499 9.37997 15.89C9.32074 16.0364 9.23229 16.1691 9.11999 16.28C9.01135 16.3927 8.87775 16.4784 8.72997 16.53C8.5829 16.5925 8.42476 16.6247 8.26498 16.6247C8.1052 16.6247 7.94706 16.5925 7.79998 16.53L7.07998 16.23C7.65015 17.0042 8.40234 17.6258 9.26998 18.04C10.3158 18.5835 11.4984 18.8069 12.6704 18.6824C13.8424 18.5579 14.9517 18.091 15.86 17.34C16.9189 16.4587 17.6282 15.2281 17.86 13.87C17.885 13.719 17.9405 13.5747 18.023 13.4458C18.1055 13.3168 18.2134 13.206 18.34 13.12C18.4679 13.0327 18.61 12.9685 18.76 12.9301C18.9123 12.9051 19.0677 12.9051 19.22 12.9301C19.3716 12.9577 19.5172 13.0118 19.65 13.09C19.7834 13.1689 19.8991 13.2745 19.99 13.4C20.0773 13.5279 20.1416 13.67 20.18 13.82C20.2099 13.9685 20.2099 14.1215 20.18 14.2701C19.8521 16.1619 18.8547 17.8726 17.37 19.09C15.8669 20.3304 13.9788 21.0088 12.03 21.0088C10.0812 21.0088 8.19313 20.3304 6.69 19.09C6.15746 18.6685 5.68033 18.1813 5.26998 17.64C5.19936 17.8536 5.06714 18.0415 4.88998 18.1801C4.68558 18.3361 4.43709 18.4236 4.17999 18.4301Z" fill="#646464"/>
</svg>
